<svg width="206" height="195" viewBox="0 0 206 195" fill="none" xmlns="http://www.w3.org/2000/svg">
<path d="M116.886 155.83C116.917 155.83 116.98 155.83 117.011 155.83C117.042 155.83 117.074 155.83 117.105 155.83C117.042 155.83 116.948 155.862 116.886 155.893V155.83Z" fill="white"/>
<path d="M85.7604 151.303C86.7948 151.618 87.8605 151.932 89.0203 152.215L90.6503 152.624L91.0891 151.02C91.1518 150.769 91.1831 150.517 91.1831 150.266C91.1831 148.568 91.1831 146.839 91.2458 145.236V143.916L89.992 143.57C87.7978 142.941 85.5723 142.124 83.4095 141.149C69.9625 135.019 61.2485 124.739 57.5498 110.625L57.111 108.927H55.7005H55.6378C55.1363 108.927 54.6034 108.927 54.0078 108.927C53.7571 108.927 53.5063 108.927 53.2555 108.927H52.4719C51.8764 108.927 51.2808 108.927 50.6226 108.896C50.5285 108.896 50.4658 108.896 50.3718 108.896H48.209L48.6792 111.002C49.1807 113.265 49.8389 115.56 50.6226 117.792C53.3182 125.368 57.7065 132.19 63.6308 138.037C69.9625 144.293 77.3913 148.788 85.7604 151.429V151.303Z" fill="#7B6557"/>
<path d="M50.7166 88.1166C51.3435 88.1166 51.9704 88.1166 52.5973 88.1166H53.381C53.6317 88.1166 53.8825 88.1166 54.1332 88.1166C54.6661 88.1166 55.1676 88.1166 55.6691 88.1166L57.0483 88.2109L57.4245 86.8592C58.4902 83.0239 60.1201 79.283 62.2516 75.6678C69.0535 64.2564 78.5197 56.9631 90.4309 54.0396C93.9729 53.1593 97.797 52.6564 101.746 52.5306C108.423 52.342 115.256 52.3734 121.839 52.4363C123.97 52.4363 126.102 52.4677 128.233 52.4677C126.728 53.9767 125.161 55.5171 123.657 57.0889C122.842 57.9691 122.277 59.258 122.277 60.3583C122.215 75.8564 122.215 90.2543 122.277 104.401C122.277 106.696 121.745 108.676 120.648 110.436C119.331 112.574 117.544 113.423 115.193 113.014C111.589 112.417 109.959 111.222 109.363 108.739C108.799 106.35 109.489 104.055 110.335 101.917C110.962 100.283 110.742 98.9622 109.551 97.7047C107.389 95.4099 105.257 93.115 103.126 90.8201C100.587 88.0852 97.985 85.2873 95.3834 82.5209C93.2206 80.2575 92.7817 78.0255 93.9729 75.322C94.1923 74.8505 94.5057 74.3475 94.8192 73.8445C95.1013 73.4044 95.3834 72.9643 95.6341 72.4613C96.0103 71.7383 96.4178 70.2293 95.4774 69.2862C94.6624 68.4689 93.8161 67.7458 92.9385 66.9914C92.625 66.7399 92.3429 66.4569 92.0295 66.2054L90.6503 64.9794L89.5532 66.4569C89.3338 66.7713 89.1144 67.0542 88.8949 67.3057C88.4561 67.903 88.0173 68.4374 87.6098 69.0347C83.4096 75.2591 84.0678 83.4955 89.2084 88.5882C91.8414 91.1974 94.4117 94.0267 96.8879 96.7302C98.2671 98.2391 99.6777 99.7795 101.088 101.288C101.402 101.603 101.402 101.666 101.276 102.074C100.461 105.061 100.399 108.079 101.057 111.034C101.402 112.511 101.872 113.643 102.499 114.523L102.812 114.995C102.875 115.12 104.662 117.761 108.078 119.647C108.642 119.962 109.802 120.559 110.993 120.905C112.811 121.439 114.567 121.722 116.228 121.722C119.488 121.722 122.403 120.653 124.879 118.516C128.829 115.152 130.929 110.531 130.96 105.187C131.023 91.1031 130.991 77.2082 130.96 63.0304C130.96 62.213 131.148 61.8672 131.524 61.5214C132.214 60.8613 132.903 60.2011 133.562 59.5409C134.596 58.5035 135.568 57.4976 136.634 56.6802C139.705 54.2596 140.959 51.2417 140.52 47.4379C140.332 45.7718 139.737 44.0742 136.947 44.0742C134.157 44.0742 136.947 44.0742 136.916 44.0742C131.493 44.1057 125.976 44.1057 120.648 44.1057C115.695 44.1057 110.742 44.1057 105.79 44.1057L98.3612 44.42C96.9506 44.4829 95.5401 44.6401 94.1609 44.8916H93.9102C92.531 45.1745 91.1205 45.426 89.7099 45.7403C87.359 46.2119 85.5097 46.7149 83.8484 47.3122C74.7897 50.4558 66.9847 55.8 60.7157 63.1561C55.0109 69.8206 51.0614 77.4911 49.024 85.9475L48.5225 88.0537H50.6853H50.7793L50.7166 88.1166Z" fill="#7B6557"/>
<path d="M134.878 156.27C133.969 155.327 132.84 155.17 131.681 155.798C123.218 160.482 113.971 163.155 104.191 163.72C100.712 163.909 97.0757 163.783 93.0949 163.312C89.5529 162.903 86.0109 162.149 82.5316 161.111C78.0492 159.759 73.7863 157.968 69.8682 155.736C68.8338 155.138 67.7367 155.295 66.9217 156.176C66.0441 157.087 65.0097 158.156 63.9439 159.162C63.317 159.759 63.0663 160.42 63.129 161.111C63.223 161.803 63.6305 162.369 64.3828 162.809C70.4637 166.361 77.0148 168.97 83.7854 170.636C89.6156 172.051 95.2577 172.711 101.057 172.617C101.339 172.617 101.652 172.617 101.934 172.617C105.946 172.617 110.178 172.208 114.504 171.359C119.644 170.385 124.565 168.844 129.142 166.864C131.9 165.669 134.627 164.286 137.26 162.809C137.542 162.652 138.42 162.149 138.545 161.08C138.639 160.388 138.357 159.728 137.73 159.131C136.759 158.219 135.818 157.244 134.878 156.27Z" fill="#939498"/>
<path d="M174.435 93.932C174.216 89.2795 173.526 84.5954 172.335 79.6599C171.614 76.7363 170.674 73.687 169.483 70.6691C168.166 67.3054 166.568 63.9732 164.687 60.7666C164.53 60.4837 164.029 59.6664 163.026 59.5406C162.336 59.4777 161.709 59.7292 161.114 60.358C160.142 61.3954 159.107 62.4013 158.136 63.313C157.227 64.1932 157.07 65.2935 157.666 66.3938C158.418 67.777 159.076 69.0973 159.703 70.3862C161.74 74.693 163.308 79.3456 164.342 84.1868C165.188 88.1792 165.721 92.486 165.69 95.1266C165.69 101.54 165.251 106.349 164.154 111.254C162.806 117.289 160.643 123.042 157.697 128.355C156.851 129.864 157.603 130.933 158.104 131.436C159.17 132.473 160.142 133.448 161.02 134.359C161.239 134.579 161.835 135.208 162.744 135.208C163.653 135.208 162.9 135.208 162.963 135.208C163.997 135.082 164.499 134.234 164.687 133.919C166.38 131.027 167.884 127.946 169.169 124.74C171.395 119.207 172.931 113.58 173.714 108.016C174.373 103.363 174.592 98.6161 174.373 93.932H174.435Z" fill="#939498"/>
<path d="M152.776 109.462C151.898 109.462 151.052 109.462 150.174 109.462H148.576C148.419 109.462 148.294 109.462 148.168 109.462H146.883L146.538 110.719C145.911 112.92 145.096 115.12 144.125 117.258C137.856 130.964 127.48 139.798 113.344 143.508L112.059 143.853V145.205C112.059 146.997 112.059 148.757 112.059 150.549V152.813L114.159 152.341C120.835 150.832 127.136 148.034 132.903 144.011C141.335 138.132 147.698 130.461 151.836 121.251C153.246 118.138 154.343 114.9 155.127 111.662L155.566 109.776L153.654 109.556C153.34 109.525 153.058 109.525 152.745 109.525L152.776 109.462Z" fill="#7B6557"/>
<path d="M43.9146 60.2322C43.0996 59.3834 42.2847 58.5032 41.4697 57.623C40.9055 56.9943 40.2786 56.7113 39.589 56.7742C38.5546 56.8685 38.0531 57.6859 37.8963 57.9688C36.141 60.8295 34.6991 63.4701 33.5394 66.0794C33.414 66.3309 33.2886 66.6138 33.1632 66.8653C32.6931 67.9027 32.1915 68.9401 31.8781 70.1347C31.8154 70.2604 31.7214 70.3862 31.6587 70.5433C30.1228 74.5672 29.0257 78.3396 28.3361 82.0491C27.2077 87.9905 26.7375 93.3033 26.9256 98.3331C27.0196 100.722 27.1763 103.834 27.6151 106.978C28.1794 110.782 29.0257 114.554 30.1541 118.138C31.596 122.696 33.414 127.035 35.6081 131.09C35.7649 131.373 36.235 132.253 37.3008 132.41C37.3948 132.41 37.4889 132.41 37.5829 132.41C38.4605 132.41 39.0561 131.813 39.2755 131.624C40.0905 130.838 41.0308 129.895 42.0339 129.046C43.1623 128.072 43.3817 126.815 42.6921 125.494C40.6861 121.659 39.0248 117.384 37.8023 112.825C36.5798 108.236 35.8589 103.332 35.7022 98.2388C35.5768 94.7494 35.7649 91.2599 36.235 87.8648C36.5485 85.5699 37.0187 83.2122 37.5829 80.9174L39.4322 74.6929C40.9055 70.732 42.6608 67.0853 44.7296 63.6273C45.0117 63.1558 45.5132 61.9612 44.3534 60.7352L43.8519 60.2008L43.9146 60.2322Z" fill="#939498"/>
<path d="M65.6052 34.4543C66.4202 35.2087 67.3919 36.1204 68.3009 37.0949C68.8964 37.7551 69.586 38.0695 70.307 38.0695C71.0279 38.0695 71.31 37.9123 71.8429 37.5979C75.573 35.3974 79.7418 33.5741 84.2555 32.1594C88.7692 30.7133 93.6277 29.8017 98.7056 29.4244C102.154 29.173 105.664 29.2044 109.081 29.5188C111.4 29.7388 113.751 30.0846 116.039 30.5562L122.308 32.128C126.352 33.4483 130.019 35.0201 133.561 36.9692C134.032 37.2207 135.254 37.6922 136.445 36.4662L136.978 35.9318C137.793 35.083 138.608 34.2342 139.454 33.3854C140.05 32.7881 140.301 32.1594 140.207 31.4678C140.081 30.4304 139.235 29.9589 138.953 29.8017C136.038 28.167 133.311 26.8467 130.709 25.8093C130.427 25.715 130.176 25.5892 129.894 25.4949C128.86 25.0548 127.763 24.6147 126.571 24.3318C126.446 24.2689 126.321 24.1746 126.164 24.1431C122.058 22.7914 118.265 21.8483 114.535 21.3139C108.579 20.4336 103.251 20.2136 98.2355 20.5908C95.8532 20.7794 92.7501 21.0624 89.6783 21.6597C85.9168 22.3827 82.1868 23.4201 78.6761 24.709C74.1938 26.3437 69.9308 28.3871 66.0127 30.7448C65.7306 30.902 64.8529 31.4364 64.7589 32.5052C64.6649 33.5426 65.3858 34.2342 65.6052 34.4543Z" fill="#939498"/>
</svg>
