<svg width="170" height="75" viewBox="0 0 170 75" fill="none" xmlns="http://www.w3.org/2000/svg">
<path d="M21.8018 38.8823V44H7.29785V38.8823H21.8018ZM9.06494 10.5859V44H2.91455V10.5859H9.06494ZM19.8511 24.3096V29.2896H7.29785V24.3096H19.8511ZM21.71 10.5859V15.7266H7.29785V10.5859H21.71ZM41.4233 39.1807L49.272 46.2949L45.3706 49.8979L37.6826 42.8296L41.4233 39.1807ZM49.0654 24.6309V29.9551C49.0654 32.3571 48.7824 34.4684 48.2163 36.2891C47.6655 38.0944 46.8623 39.6014 45.8066 40.8101C44.7663 42.0187 43.5194 42.929 42.0659 43.541C40.6125 44.153 39.006 44.459 37.2466 44.459C35.4718 44.459 33.8577 44.153 32.4043 43.541C30.9661 42.929 29.7192 42.0187 28.6636 40.8101C27.6232 39.6014 26.8123 38.0944 26.231 36.2891C25.6496 34.4684 25.3589 32.3571 25.3589 29.9551V24.6309C25.3589 22.2288 25.6419 20.1252 26.208 18.3198C26.7741 16.5145 27.585 15.0075 28.6406 13.7988C29.6963 12.5749 30.9432 11.6569 32.3813 11.0449C33.8348 10.4329 35.4412 10.127 37.2007 10.127C38.9754 10.127 40.5895 10.4329 42.043 11.0449C43.4964 11.6569 44.751 12.5749 45.8066 13.7988C46.8623 15.0075 47.6655 16.5145 48.2163 18.3198C48.7824 20.1252 49.0654 22.2288 49.0654 24.6309ZM42.938 29.9551V24.585C42.938 22.9479 42.8156 21.5404 42.5708 20.3623C42.326 19.1842 41.9588 18.228 41.4692 17.4937C40.9797 16.744 40.3753 16.1932 39.6562 15.8413C38.9525 15.4894 38.134 15.3135 37.2007 15.3135C36.2827 15.3135 35.4642 15.4894 34.7451 15.8413C34.0413 16.1932 33.4447 16.744 32.9551 17.4937C32.4808 18.228 32.1136 19.1842 31.8535 20.3623C31.6087 21.5404 31.4863 22.9479 31.4863 24.585V29.9551C31.4863 31.6074 31.6087 33.0226 31.8535 34.2007C32.1136 35.3787 32.4884 36.3503 32.978 37.1152C33.4676 37.8649 34.0643 38.4157 34.7681 38.7676C35.4871 39.1195 36.3133 39.2954 37.2466 39.2954C38.1646 39.2954 38.9754 39.1195 39.6792 38.7676C40.3983 38.4157 41.0026 37.8649 41.4922 37.1152C41.9818 36.3503 42.3413 35.3787 42.5708 34.2007C42.8156 33.0226 42.938 31.6074 42.938 29.9551ZM69.582 10.5859H75.7324V33.6729C75.7324 36.2279 75.2581 38.3009 74.3096 39.8921C73.361 41.4832 72.0682 42.646 70.4312 43.3804C68.7941 44.0994 66.9505 44.459 64.9004 44.459C62.8044 44.459 60.9378 44.0994 59.3008 43.3804C57.6637 42.646 56.3786 41.4832 55.4453 39.8921C54.5273 38.3009 54.0684 36.2279 54.0684 33.6729V10.5859H60.1958V33.6729C60.1958 35.1875 60.3794 36.3579 60.7466 37.1841C61.1291 38.0103 61.6646 38.5763 62.353 38.8823C63.0415 39.1883 63.8906 39.3413 64.9004 39.3413C65.9102 39.3413 66.7593 39.1883 67.4478 38.8823C68.1362 38.5763 68.6641 38.0103 69.0312 37.1841C69.3984 36.3579 69.582 35.1875 69.582 33.6729V10.5859ZM96.3408 10.5859H102.491V33.6729C102.491 36.2279 102.017 38.3009 101.068 39.8921C100.12 41.4832 98.827 42.646 97.1899 43.3804C95.5529 44.0994 93.7093 44.459 91.6592 44.459C89.5632 44.459 87.6966 44.0994 86.0596 43.3804C84.4225 42.646 83.1374 41.4832 82.2041 39.8921C81.2861 38.3009 80.8271 36.2279 80.8271 33.6729V10.5859H86.9546V33.6729C86.9546 35.1875 87.1382 36.3579 87.5054 37.1841C87.8879 38.0103 88.4233 38.5763 89.1118 38.8823C89.8003 39.1883 90.6494 39.3413 91.6592 39.3413C92.6689 39.3413 93.5181 39.1883 94.2065 38.8823C94.895 38.5763 95.4229 38.0103 95.79 37.1841C96.1572 36.3579 96.3408 35.1875 96.3408 33.6729V10.5859ZM122.182 35.3022C122.182 34.6444 122.113 34.063 121.975 33.5581C121.853 33.0379 121.608 32.5636 121.241 32.1353C120.874 31.7069 120.346 31.2861 119.657 30.873C118.969 30.4447 118.081 30.0086 116.995 29.5649C115.71 29.0448 114.494 28.494 113.346 27.9126C112.199 27.3159 111.174 26.6274 110.271 25.8472C109.368 25.0669 108.657 24.1489 108.137 23.0933C107.632 22.0376 107.379 20.806 107.379 19.3984C107.379 18.0215 107.624 16.7669 108.114 15.6348C108.619 14.4873 109.33 13.5081 110.248 12.6973C111.166 11.8711 112.252 11.2362 113.507 10.7925C114.777 10.3488 116.177 10.127 117.707 10.127C119.864 10.127 121.715 10.5783 123.26 11.481C124.806 12.3836 125.999 13.6076 126.84 15.1528C127.682 16.6981 128.103 18.4422 128.103 20.3853H121.975C121.975 19.3755 121.822 18.4805 121.516 17.7002C121.225 16.9046 120.759 16.285 120.116 15.8413C119.474 15.3976 118.647 15.1758 117.638 15.1758C116.689 15.1758 115.909 15.367 115.297 15.7495C114.685 16.1167 114.234 16.6216 113.943 17.2642C113.652 17.8914 113.507 18.6105 113.507 19.4214C113.507 20.0028 113.637 20.5306 113.897 21.0049C114.172 21.4639 114.547 21.8846 115.021 22.2671C115.496 22.6496 116.069 23.0168 116.743 23.3687C117.431 23.7052 118.196 24.0342 119.038 24.3555C120.583 24.9368 121.937 25.5794 123.1 26.2832C124.262 26.9717 125.226 27.752 125.991 28.624C126.771 29.4808 127.353 30.4523 127.735 31.5386C128.118 32.6248 128.309 33.8641 128.309 35.2563C128.309 36.6333 128.072 37.8879 127.598 39.02C127.123 40.1522 126.435 41.1237 125.532 41.9346C124.63 42.7454 123.536 43.3727 122.25 43.8164C120.981 44.2448 119.565 44.459 118.005 44.459C116.506 44.459 115.075 44.2448 113.713 43.8164C112.367 43.3727 111.174 42.7072 110.133 41.8198C109.093 40.9325 108.274 39.8156 107.678 38.4692C107.081 37.1076 106.783 35.5088 106.783 33.6729H112.91C112.91 34.6979 113.025 35.5853 113.254 36.335C113.484 37.0693 113.828 37.666 114.287 38.125C114.746 38.5687 115.297 38.8976 115.939 39.1118C116.582 39.3107 117.309 39.4102 118.12 39.4102C119.083 39.4102 119.864 39.2342 120.46 38.8823C121.057 38.5304 121.493 38.0485 121.769 37.4365C122.044 36.8092 122.182 36.0978 122.182 35.3022ZM139.462 10.5859V44H133.358V10.5859H139.462ZM154.035 44H148.183L148.229 38.8823H154.035C155.733 38.8823 157.072 38.5763 158.051 37.9644C159.046 37.3371 159.75 36.3656 160.163 35.0498C160.591 33.734 160.805 32.0358 160.805 29.9551V24.6079C160.805 23.0168 160.69 21.6628 160.461 20.5459C160.231 19.4137 159.857 18.4958 159.336 17.792C158.816 17.0882 158.135 16.568 157.294 16.2314C156.452 15.8949 155.412 15.7266 154.173 15.7266H148.068V10.5859H154.173C156.101 10.5859 157.845 10.8996 159.405 11.5269C160.966 12.1388 162.305 13.0415 163.421 14.2349C164.554 15.4282 165.418 16.9046 166.015 18.6641C166.611 20.4082 166.91 22.4048 166.91 24.6538V29.9551C166.91 32.2041 166.611 34.2007 166.015 35.9448C165.418 37.689 164.554 39.1577 163.421 40.3511C162.305 41.5444 160.951 42.4548 159.359 43.082C157.784 43.694 156.009 44 154.035 44ZM151.717 10.5859V44H145.567V10.5859H151.717Z" fill="#7D5B47"/>
<path d="M27.0449 63.4688V72H25.9668V63.4688H27.0449ZM30.8535 72H29.4004L29.4121 71.0801H30.8535C31.3652 71.0801 31.7812 70.9824 32.1016 70.7871C32.4219 70.5879 32.6582 70.2949 32.8105 69.9082C32.9629 69.5176 33.0391 69.0352 33.0391 68.4609V67.002C33.0391 66.5488 32.9961 66.1582 32.9102 65.8301C32.8242 65.502 32.6953 65.2324 32.5234 65.0215C32.3516 64.8105 32.1348 64.6543 31.873 64.5527C31.6113 64.4473 31.3047 64.3945 30.9531 64.3945H29.3711V63.4688H30.9531C31.4336 63.4688 31.8672 63.5449 32.2539 63.6973C32.6406 63.8457 32.9727 64.0703 33.25 64.3711C33.5273 64.668 33.7383 65.0371 33.8828 65.4785C34.0312 65.9199 34.1055 66.4316 34.1055 67.0137V68.4609C34.1055 69.043 34.0312 69.5547 33.8828 69.9961C33.7383 70.4375 33.5254 70.8066 33.2441 71.1035C32.9629 71.4004 32.6211 71.625 32.2188 71.7773C31.8203 71.9258 31.3652 72 30.8535 72ZM29.998 63.4688V72H28.9199V63.4688H29.998ZM40.3633 71.0801V72H36.6602V71.0801H40.3633ZM36.8535 63.4688V72H35.7754V63.4688H36.8535ZM39.8652 67.1367V68.0566H36.6602V67.1367H39.8652ZM40.3047 63.4688V64.3945H36.6602V63.4688H40.3047ZM47.3184 63.4688V72H46.2344L42.8184 65.4199V72H41.7402V63.4688H42.8184L46.252 70.0664V63.4688H47.3184ZM51.748 63.4688V72H50.6816V63.4688H51.748ZM53.9922 63.4688V64.3945H48.4434V63.4688H53.9922ZM56.377 63.4688V72H55.2988V63.4688H56.377ZM59.3301 63.4688V72H58.252V63.4688H59.3301ZM62.207 67.3066V68.2324H59.125V67.3066H62.207ZM62.6934 63.4688V64.3945H59.125V63.4688H62.6934ZM65.1543 63.4688V72H64.0762V63.4688H65.1543ZM71.3008 69.2871H72.3789C72.3516 69.873 72.2324 70.3789 72.0215 70.8047C71.8145 71.2266 71.5117 71.5508 71.1133 71.7773C70.7188 72.0039 70.2246 72.1172 69.6309 72.1172C69.2051 72.1172 68.8203 72.0332 68.4766 71.8652C68.1328 71.6973 67.8379 71.457 67.5918 71.1445C67.3496 70.8281 67.1641 70.4492 67.0352 70.0078C66.9062 69.5664 66.8418 69.0703 66.8418 68.5195V66.9434C66.8418 66.3965 66.9062 65.9023 67.0352 65.4609C67.168 65.0195 67.3574 64.6426 67.6035 64.3301C67.8535 64.0137 68.1562 63.7715 68.5117 63.6035C68.8711 63.4355 69.2773 63.3516 69.7305 63.3516C70.2852 63.3516 70.7539 63.4629 71.1367 63.6855C71.5234 63.9043 71.8203 64.2266 72.0273 64.6523C72.2383 65.0742 72.3555 65.5918 72.3789 66.2051H71.3008C71.2734 65.7559 71.2031 65.3906 71.0898 65.1094C70.9766 64.8242 70.8086 64.6152 70.5859 64.4824C70.3672 64.3457 70.082 64.2773 69.7305 64.2773C69.418 64.2773 69.1465 64.3398 68.916 64.4648C68.6895 64.5898 68.502 64.7695 68.3535 65.0039C68.209 65.2344 68.0996 65.5137 68.0254 65.8418C67.9551 66.166 67.9199 66.5293 67.9199 66.9316V68.5195C67.9199 68.8945 67.9492 69.2441 68.0078 69.5684C68.0703 69.8926 68.168 70.1777 68.3008 70.4238C68.4375 70.666 68.6152 70.8555 68.834 70.9922C69.0527 71.1289 69.3184 71.1973 69.6309 71.1973C70.0254 71.1973 70.3379 71.1328 70.5684 71.0039C70.7988 70.875 70.9688 70.6699 71.0781 70.3887C71.1914 70.1074 71.2656 69.7402 71.3008 69.2871ZM76.6035 64.2246L74.2715 72H73.1699L75.918 63.4688H76.6094L76.6035 64.2246ZM78.4902 72L76.1582 64.2246L76.1465 63.4688H76.8438L79.5918 72H78.4902ZM78.4902 68.8418V69.7676H74.377V68.8418H78.4902ZM84.9648 69.2871H86.043C86.0156 69.873 85.8965 70.3789 85.6855 70.8047C85.4785 71.2266 85.1758 71.5508 84.7773 71.7773C84.3828 72.0039 83.8887 72.1172 83.2949 72.1172C82.8691 72.1172 82.4844 72.0332 82.1406 71.8652C81.7969 71.6973 81.502 71.457 81.2559 71.1445C81.0137 70.8281 80.8281 70.4492 80.6992 70.0078C80.5703 69.5664 80.5059 69.0703 80.5059 68.5195V66.9434C80.5059 66.3965 80.5703 65.9023 80.6992 65.4609C80.832 65.0195 81.0215 64.6426 81.2676 64.3301C81.5176 64.0137 81.8203 63.7715 82.1758 63.6035C82.5352 63.4355 82.9414 63.3516 83.3945 63.3516C83.9492 63.3516 84.418 63.4629 84.8008 63.6855C85.1875 63.9043 85.4844 64.2266 85.6914 64.6523C85.9023 65.0742 86.0195 65.5918 86.043 66.2051H84.9648C84.9375 65.7559 84.8672 65.3906 84.7539 65.1094C84.6406 64.8242 84.4727 64.6152 84.25 64.4824C84.0312 64.3457 83.7461 64.2773 83.3945 64.2773C83.082 64.2773 82.8105 64.3398 82.5801 64.4648C82.3535 64.5898 82.166 64.7695 82.0176 65.0039C81.873 65.2344 81.7637 65.5137 81.6895 65.8418C81.6191 66.166 81.584 66.5293 81.584 66.9316V68.5195C81.584 68.8945 81.6133 69.2441 81.6719 69.5684C81.7344 69.8926 81.832 70.1777 81.9648 70.4238C82.1016 70.666 82.2793 70.8555 82.498 70.9922C82.7168 71.1289 82.9824 71.1973 83.2949 71.1973C83.6895 71.1973 84.002 71.1328 84.2324 71.0039C84.4629 70.875 84.6328 70.6699 84.7422 70.3887C84.8555 70.1074 84.9297 69.7402 84.9648 69.2871ZM88.627 63.4688V72H87.5488V63.4688H88.627ZM96.0508 66.9961V68.4785C96.0508 69.0801 95.9844 69.6094 95.8516 70.0664C95.7227 70.5195 95.5332 70.8984 95.2832 71.2031C95.0332 71.5078 94.7324 71.7363 94.3809 71.8887C94.0293 72.041 93.6328 72.1172 93.1914 72.1172C92.7656 72.1172 92.377 72.041 92.0254 71.8887C91.6738 71.7363 91.3711 71.5078 91.1172 71.2031C90.8633 70.8984 90.666 70.5195 90.5254 70.0664C90.3887 69.6094 90.3203 69.0801 90.3203 68.4785V66.9961C90.3203 66.3945 90.3887 65.8672 90.5254 65.4141C90.6621 64.957 90.8574 64.5762 91.1113 64.2715C91.3652 63.9668 91.668 63.7383 92.0195 63.5859C92.3711 63.4297 92.7598 63.3516 93.1855 63.3516C93.627 63.3516 94.0234 63.4297 94.375 63.5859C94.7305 63.7383 95.0312 63.9668 95.2773 64.2715C95.5273 64.5762 95.7188 64.957 95.8516 65.4141C95.9844 65.8672 96.0508 66.3945 96.0508 66.9961ZM94.9844 68.4785V66.9844C94.9844 66.5156 94.9453 66.1133 94.8672 65.7773C94.7891 65.4375 94.6738 65.1602 94.5215 64.9453C94.3691 64.7305 94.1816 64.5723 93.959 64.4707C93.7363 64.3652 93.4785 64.3125 93.1855 64.3125C92.9082 64.3125 92.6582 64.3652 92.4355 64.4707C92.2168 64.5723 92.0293 64.7305 91.873 64.9453C91.7168 65.1602 91.5957 65.4375 91.5098 65.7773C91.4277 66.1133 91.3867 66.5156 91.3867 66.9844V68.4785C91.3867 68.9512 91.4277 69.3574 91.5098 69.6973C91.5957 70.0332 91.7168 70.3105 91.873 70.5293C92.0332 70.7441 92.2246 70.9043 92.4473 71.0098C92.6699 71.1113 92.918 71.1621 93.1914 71.1621C93.4844 71.1621 93.7422 71.1113 93.9648 71.0098C94.1914 70.9043 94.3789 70.7441 94.5273 70.5293C94.6797 70.3105 94.793 70.0332 94.8672 69.6973C94.9453 69.3574 94.9844 68.9512 94.9844 68.4785ZM92.6055 62.8887L93.7422 61.166H95.0488L93.4785 62.8887H92.6055ZM103.299 63.4688V72H102.215L98.7988 65.4199V72H97.7207V63.4688H98.7988L102.232 70.0664V63.4688H103.299ZM112.504 71.0801V72H108.801V71.0801H112.504ZM108.994 63.4688V72H107.916V63.4688H108.994ZM112.006 67.1367V68.0566H108.801V67.1367H112.006ZM112.445 63.4688V64.3945H108.801V63.4688H112.445ZM117.607 71.0215L119.5 72.7383L118.768 73.4414L116.916 71.748L117.607 71.0215ZM119.383 66.9961V68.4727C119.383 69.0781 119.316 69.6094 119.184 70.0664C119.055 70.5195 118.865 70.8984 118.615 71.2031C118.365 71.5078 118.062 71.7363 117.707 71.8887C117.355 72.041 116.959 72.1172 116.518 72.1172C116.092 72.1172 115.703 72.041 115.352 71.8887C115 71.7363 114.697 71.5078 114.443 71.2031C114.189 70.8984 113.992 70.5195 113.852 70.0664C113.715 69.6094 113.646 69.0781 113.646 68.4727V66.9961C113.646 66.3906 113.715 65.8613 113.852 65.4082C113.988 64.9551 114.184 64.5762 114.438 64.2715C114.691 63.9629 114.994 63.7324 115.346 63.5801C115.697 63.4277 116.086 63.3516 116.512 63.3516C116.953 63.3516 117.35 63.4277 117.701 63.5801C118.057 63.7324 118.359 63.9629 118.609 64.2715C118.859 64.5762 119.051 64.9551 119.184 65.4082C119.316 65.8613 119.383 66.3906 119.383 66.9961ZM118.316 68.4727V66.9844C118.316 66.5156 118.277 66.1133 118.199 65.7773C118.121 65.4375 118.004 65.1602 117.848 64.9453C117.695 64.7305 117.508 64.5723 117.285 64.4707C117.062 64.3652 116.805 64.3125 116.512 64.3125C116.238 64.3125 115.99 64.3652 115.768 64.4707C115.549 64.5723 115.361 64.7305 115.205 64.9453C115.049 65.1602 114.928 65.4375 114.842 65.7773C114.76 66.1133 114.719 66.5156 114.719 66.9844V68.4727C114.719 68.9453 114.76 69.3516 114.842 69.6914C114.928 70.0312 115.049 70.3105 115.205 70.5293C115.365 70.7441 115.555 70.9043 115.773 71.0098C115.996 71.1113 116.244 71.1621 116.518 71.1621C116.811 71.1621 117.068 71.1113 117.291 71.0098C117.518 70.9043 117.707 70.7441 117.859 70.5293C118.012 70.3105 118.125 70.0312 118.199 69.6914C118.277 69.3516 118.316 68.9453 118.316 68.4727ZM125.113 63.4688H126.191V69.4746C126.191 70.1152 126.068 70.6289 125.822 71.0156C125.576 71.4023 125.252 71.6836 124.85 71.8594C124.451 72.0312 124.021 72.1172 123.561 72.1172C123.068 72.1172 122.625 72.0312 122.23 71.8594C121.836 71.6836 121.521 71.4023 121.287 71.0156C121.057 70.6289 120.941 70.1152 120.941 69.4746V63.4688H122.014V69.4746C122.014 69.9199 122.076 70.2676 122.201 70.5176C122.33 70.7676 122.51 70.9434 122.74 71.0449C122.975 71.1465 123.248 71.1973 123.561 71.1973C123.877 71.1973 124.15 71.1465 124.381 71.0449C124.615 70.9434 124.795 70.7676 124.92 70.5176C125.049 70.2676 125.113 69.9199 125.113 69.4746V63.4688ZM128.963 63.4688V72H127.885V63.4688H128.963ZM136.416 63.4688V72H135.332L131.916 65.4199V72H130.838V63.4688H131.916L135.35 70.0664V63.4688H136.416ZM141.15 64.2246L138.818 72H137.717L140.465 63.4688H141.156L141.15 64.2246ZM143.037 72L140.705 64.2246L140.693 63.4688H141.391L144.139 72H143.037ZM143.037 68.8418V69.7676H138.924V68.8418H143.037Z" fill="#7D5B47"/>
</svg>
